PathFileType	4	(X/Y/Z)	/Users/mathieubourgeois/Desktop/Analyse/Traitement/Sujet_01/Data/Transformed_Sujet_01_velo_60.trc
DataRate	CameraRate	NumFrames	NumMarkers	Units	OrigDataRate	OrigDataStartFrame	OrigNumFrames
120.000000	120.000000	4	36	mm	120.000000	965	1931
Frame#	Time	C7			RFHD			LFHD			RBHD			LBHD			RSHO			LSHO			CLAV			STRN			T10			RBWT			LBWT			RFWT			LFWT			RRAD			RWRA			RWRB			RCAR			RHUM			LHUM			LRAD			LWRA			LWRB			LCAR			RKNI			RKNE			LKNI			LKNE			RANE			RANI			RTOE			RHEE			LTOE			LANI			LANE			LHEE			
		X1	Y1	Z1	X2	Y2	Z2	X3	Y3	Z3	X4	Y4	Z4	X5	Y5	Z5	X6	Y6	Z6	X7	Y7	Z7	X8	Y8	Z8	X9	Y9	Z9	X10	Y10	Z10	X11	Y11	Z11	X12	Y12	Z12	X13	Y13	Z13	X14	Y14	Z14	X15	Y15	Z15	X16	Y16	Z16	X17	Y17	Z17	X18	Y18	Z18	X19	Y19	Z19	X20	Y20	Z20	X21	Y21	Z21	X22	Y22	Z22	X23	Y23	Z23	X24	Y24	Z24	X25	Y25	Z25	X26	Y26	Z26	X27	Y27	Z27	X28	Y28	Z28	X29	Y29	Z29	X30	Y30	Z30	X31	Y31	Z31	X32	Y32	Z32	X33	Y33	Z33	X34	Y34	Z34	X35	Y35	Z35	X36	Y36	Z36	

966	8.041666666666666	-32.60711288452151	1458.166015625	234.2843170166015	95.44176483154293	1572.18603515625	314.8824462890624	128.5284423828125	1576.36474609375	205.4578552246093	-51.49457931518558	1546.722534179688	289.788604736328	-31.0143451690674	1543.317260742188	160.1963806152343	-15.68076992034916	1388.144775390625	340.6526489257812	-25.16948890686037	1375.697875976562	114.1961364746093	3.182101011276216	1329.721069335938	234.3533477783202	-48.10885238647464	1223.57568359375	241.417266845703	-233.6678466796875	1378.52880859375	249.236358642578	-417.7812500000001	1111.735473632812	331.187286376953	-424.9977722167969	1103.571655273438	211.0355682373046	-243.3272857666016	1070.075439453125	377.6803894042968	-247.0528411865235	1078.38671875	152.7525024414062	89.50244903564447	1138.283325195312	446.1606140136718	297.9938964843749	1029.2841796875	388.9692993164062	323.6097717285156	1049.1142578125	446.909423828125	400.9411315917968	1033.314697265625	376.1812744140625	138.441177368164	1179.230590820312	468.2846069335937	148.8133850097656	1173.319946289062	38.28345108032222	97.26069641113281	1137.2626953125	55.05144882202143	318.4996337890625	1044.538696289062	132.3583374023437	340.7118835449219	1055.177001953125	70.05914306640622	405.8135375976562	1038.709716796875	139.7425994873047	-147.9165191650391	637.7980346679688	333.4457702636718	-150.242416381836	672.3214111328125	447.8765563964843	40.39066696166989	926.0510864257812	207.4398651123046	28.09865188598632	911.2167358398438	80.88592529296869	-260.7749328613282	346.5690612792969	423.6267089843749	-225.4859619140626	339.2638244628906	348.9628601074219	-112.0354385375977	216.9789581298828	430.2854309082031	-324.8099975585938	326.6014709472656	371.2040100097656	67.61952209472655	534.5051879882812	139.974853515625	-98.84861755371097	605.6482543945312	189.2775726318359	-116.5743713378906	595.13330078125	111.0720520019531	-186.6537628173828	545.944091796875	157.1099548339843	
967	8.050000000000001	-32.75306701660159	1458.182739257812	234.6216583251952	95.14739990234371	1572.44384765625	315.1231079101561	128.0487823486328	1576.63525390625	205.5449066162109	-51.78269958496097	1546.712036132812	290.248321533203	-31.45399856567385	1543.332275390625	160.598892211914	-15.91303634643559	1388.103393554688	340.9601440429687	-25.19045066833498	1375.788208007812	114.491355895996	3.024240493774385	1329.761474609375	234.6792755126952	-48.34344482421878	1223.643432617188	241.748062133789	-233.777587890625	1378.4716796875	249.3535614013671	-417.7351379394532	1111.54541015625	331.1441955566405	-424.8731689453125	1103.242797851562	210.9991760253905	-243.2383270263672	1070.202392578125	377.8112487792968	-246.9395446777344	1078.085571289062	152.8718261718749	89.45143127441401	1138.166137695312	446.4136657714843	298.0021057128906	1029.268798828125	389.0417175292969	323.6220092773437	1049.080078125	446.9773559570312	400.9451293945312	1033.293701171875	376.2361450195312	138.3753967285156	1179.1123046875	468.4810180664062	148.8475799560547	1173.464233398438	38.41917800903315	97.18614959716797	1137.373901367188	55.15672683715815	318.4967956542969	1044.521728515625	132.4138793945312	340.7153625488281	1055.209594726562	70.13566589355466	405.8130187988281	1038.736083984375	139.8036804199219	-145.0727691650391	641.1065673828125	334.4331665039062	-146.2050933837891	675.5979614257812	448.8267211914062	39.94937896728513	921.3384399414062	207.6933288574218	28.06168365478515	906.2597045898438	81.49658203124994	-265.5093994140626	353.3481750488281	423.5534362792968	-230.3186645507813	345.4207458496094	348.72119140625	-119.4170455932618	221.0623321533203	430.1671142578125	-330.0539550781251	334.6588439941406	370.9776611328124	73.54983520507811	529.8193969726562	140.2051544189453	-93.6000671386719	598.1727294921875	189.131607055664	-110.8658218383789	587.5289306640625	111.0325241088867	-179.9715576171875	536.8681030273438	156.9463806152343	
968	8.058333333333334	-32.89321136474612	1458.193359375	234.9686431884765	94.90883636474605	1572.659790039062	315.448272705078	127.6397476196289	1576.830078125	205.8294982910156	-52.02264404296879	1546.737670898438	290.7180786132811	-31.87636566162112	1543.373657226562	161.0834045410155	-16.1350479125977	1388.063598632812	341.2566223144531	-25.20217514038087	1375.865478515625	114.8159103393554	2.848249435424776	1329.805541992188	235.0582275390624	-48.56994628906253	1223.656982421875	242.0202636718749	-233.8654174804688	1378.389892578125	249.5166015624999	-417.6117553710938	1111.282104492188	331.0960388183593	-424.6888122558594	1102.884643554688	211.0119323730468	-243.0753479003907	1070.309814453125	377.9199218749999	-246.7574920654297	1077.814331054688	152.999771118164	89.41786193847651	1138.013427734375	446.6344604492187	297.9859313964843	1029.2626953125	389.0626220703125	323.6460571289062	1049.053588867188	447.0351867675781	400.9701538085937	1033.278686523438	376.2320861816406	138.3159637451171	1178.980712890625	468.6779479980468	148.8786163330078	1173.578735351562	38.55599212646479	97.07595825195312	1137.542358398438	55.20678710937494	318.4939575195312	1044.484375	132.4347534179687	340.69873046875	1055.232299804688	70.1700744628906	405.7948913574219	1038.746948242188	139.8121032714844	-138.8937225341797	644.5950317382812	334.1887207031249	-141.9723052978516	679.0297241210938	449.7944641113281	39.47834396362302	916.0865478515625	207.9060058593749	27.89271545410155	900.73876953125	82.02932739257807	-269.9203491210938	360.4839782714844	423.4283142089843	-234.7815246582032	352.0230102539062	348.4296264648437	-126.4785461425782	225.6096343994141	430.075927734375	-334.9383544921876	343.0859680175781	370.7868652343749	80.17173767089842	525.656005859375	140.2007293701172	-85.0285568237305	590.4042358398438	189.5476379394531	-105.389274597168	579.5111694335938	110.9591598510742	-173.539291381836	527.5180053710938	156.724624633789	
969	8.066666666666666	-33.02507781982425	1458.193725585938	235.3366699218749	94.69924926757808	1572.857421875	315.7820739746093	127.2481918334961	1577.0205078125	206.2272949218749	-52.2558746337891	1546.766845703125	291.2871093749999	-32.27073669433596	1543.43310546875	161.5833282470702	-16.31664657592778	1388.016723632812	341.5600891113281	-25.21753120422365	1375.933959960938	115.1926116943359	2.745404481887789	1329.865234375	235.412139892578	-48.7635192871094	1223.70654296875	242.3116455078124	-233.9306640625	1378.267456054688	249.6972656249999	-417.4251403808594	1110.9609375	331.0292053222655	-424.4078063964844	1102.492919921875	210.9917907714843	-242.8686828613282	1070.37353515625	378.0235900878905	-246.5083160400391	1077.476440429688	153.1223907470702	89.39022827148432	1137.836791992188	446.8289489746093	298.0014648437499	1029.220581054688	389.0807495117188	323.6865539550781	1049.002075195312	447.0328674316406	401.0012817382812	1033.250732421875	376.2064514160156	138.2451171874999	1178.793334960938	468.8826904296874	148.9055786132812	1173.654541015625	38.68704986572261	96.94236755371094	1137.644287109375	55.31272125244135	318.4923400878906	1044.43408203125	132.4375915527343	340.6855163574219	1055.231811523438	70.15596008300778	405.8075256347656	1038.748657226562	139.7912902832031	-136.3871765136719	648.29052734375	334.9712219238281	-137.5255432128907	682.5979614257812	450.7299499511718	38.92501831054685	910.2679443359375	208.0955505371093	27.67739295959472	894.6194458007812	82.44223785400385	-273.9700927734376	368.0367126464844	423.3976440429687	-239.0250549316407	358.9151916503906	348.2100830078124	-133.1810302734376	230.5683288574219	429.9476013183594	-339.4094848632813	351.8690490722656	370.6186218261718	85.77997589111327	519.5896606445312	140.8898162841797	-79.8616638183594	582.0227661132812	189.4313812255859	-100.1418685913086	571.1717529296875	110.8911819458007	-166.5581207275391	517.6023559570312	156.4760131835937	
